<svg width="200" height="64" viewBox="0 0 200 64" fill="none" xmlns="http://www.w3.org/2000/svg">
<path d="M68.9984 13C61.6766 13 55.7439 18.8788 55.7439 26.1341C55.7439 33.3895 61.6766 39.2683 68.9984 39.2683C76.3202 39.2683 82.2529 33.3895 82.2529 26.1341C82.2529 18.8788 76.3202 13 68.9984 13ZM68.9984 32.5529C65.4219 32.5529 62.5208 29.6781 62.5208 26.1341C62.5208 22.5901 65.4219 19.7154 68.9984 19.7154C72.5749 19.7154 75.476 22.5901 75.476 26.1341C75.476 29.6781 72.5749 32.5529 68.9984 32.5529Z" fill="url(#paint0_linear_579_8499)"/>
<path d="M44.5285 48.7249C42.8385 48.7249 41.4697 47.3107 41.4697 45.5648V19.3123C41.4697 17.5664 42.8385 16.1522 44.5285 16.1522C46.2184 16.1522 47.5872 17.5664 47.5872 19.3123V45.5727C47.5795 47.3107 46.2108 48.7249 44.5285 48.7249Z" fill="#5087CB"/>
<path d="M138.329 48.7249C136.64 48.7249 135.271 47.3107 135.271 45.5648V19.3123C135.271 17.5664 136.64 16.1522 138.329 16.1522C140.019 16.1522 141.388 17.5664 141.388 19.3123V45.5727C141.381 47.3107 140.012 48.7249 138.329 48.7249Z" fill="#65BFC3"/>
<path d="M55.7439 31.9093C55.7439 33.653 54.4367 35.0654 52.8228 35.0654H42.4894V28.761H52.8228C54.4367 28.7531 55.7439 30.1655 55.7439 31.9093Z" fill="#5087CB"/>
<path d="M148.525 32.4353C148.525 33.8884 147.218 35.0654 145.604 35.0654H135.271V29.8117H145.604C147.218 29.8052 148.525 30.9821 148.525 32.4353Z" fill="#65BFC3"/>
<path d="M169 39.4532C169 39.4532 157.22 40.6835 155.683 39.4532C154.146 38.223 155.683 21 155.683 21" stroke="#7FD7B1" stroke-width="7" stroke-miterlimit="10" stroke-linecap="round"/>
<path d="M171.863 27H176.273L176.273 19.2C176.273 17.432 177.555 16 179.137 16C180.719 16 182 17.432 182 19.2L182 27.008V33.4L182 45.8C182 47.568 180.719 49 179.137 49C177.555 49 176.273 47.568 176.273 45.8L176.273 33.392H171.863C170.281 33.392 169 31.96 169 30.192C169 28.432 170.281 27 171.863 27Z" fill="#7FD7B0"/>
<path d="M84.0833 44.5219C84.0833 44.5219 87.563 48.213 90.5 49C95 50.2058 98 49 98 49" stroke="url(#paint1_linear_579_8499)" stroke-width="6" stroke-miterlimit="10" stroke-linecap="round"/>
<path d="M90.9192 18.2537C90.9192 18.2537 94.4877 32.9639 82.9194 42.7216C76.5545 49.3575 68.9983 48.2108 68.9983 48.2108" stroke="#66C1C3" stroke-width="6" stroke-miterlimit="10" stroke-linecap="round"/>
<path d="M17 20V42.0653H35.3524H17V20ZM17 20H33.8791" stroke="#5087CC" stroke-width="7" stroke-miterlimit="10" stroke-linecap="round" stroke-linejoin="round"/>
<path d="M127.027 24.5581H106.81C105.068 24.5581 103.664 22.9086 103.664 20.8805C103.664 18.844 105.075 17.2029 106.81 17.2029H127.027C128.769 17.2029 130.173 18.8524 130.173 20.8805C130.173 22.9086 128.769 24.5581 127.027 24.5581Z" fill="#65BFC3"/>
<path d="M106 40C106 40 109.834 37.9499 113.237 33C116.641 28.0501 117 24 117 24" stroke="#65BFC3" stroke-width="6" stroke-miterlimit="10" stroke-linecap="round"/>
<path d="M128 40C128 40 124.166 37.9499 120.763 33C117.359 28.0501 117 24 117 24" stroke="#65BFC3" stroke-width="6" stroke-miterlimit="10" stroke-linecap="round"/>
<defs>
<linearGradient id="paint0_linear_579_8499" x1="55.7439" y1="26.1341" x2="82.2529" y2="26.1341" gradientUnits="userSpaceOnUse">
<stop stop-color="#3E7DC3"/>
<stop offset="1" stop-color="#66C1C3"/>
</linearGradient>
<linearGradient id="paint1_linear_579_8499" x1="83.6778" y1="46.0416" x2="97.4979" y2="49.7286" gradientUnits="userSpaceOnUse">
<stop stop-color="#65BFC3"/>
<stop offset="1" stop-color="#7FD7B0"/>
</linearGradient>
</defs>
</svg>
